HIERARCHY
ROOT Hips
{
	OFFSET 0.000000 0.000000 0.000000
	CHANNELS 6 Xposition Yposition Zposition Zrotation Yrotation Xrotation 
	JOINT LHipJoint
	{
		OFFSET 0.000000 0.000000 0.000000
		CHANNELS 3 Zrotation Yrotation Xrotation
		JOINT LeftUpLeg
		{
			OFFSET 1.363060 -1.794630 0.839290
			CHANNELS 3 Zrotation Yrotation Xrotation
			JOINT LeftLeg
			{
				OFFSET 2.448110 -6.726130 0.000000
				CHANNELS 3 Zrotation Yrotation Xrotation
				JOINT LeftFoot
				{
					OFFSET 2.562200 -7.039590 0.000000
					CHANNELS 3 Zrotation Yrotation Xrotation
					JOINT LeftToeBase
					{
						OFFSET 0.157640 -0.433110 2.322550
						CHANNELS 3 Zrotation Yrotation Xrotation
						End Site
						{
							OFFSET 0.000000 0.000000 0.000000
						}
					}
				}
			}
		}
	}
	JOINT RHipJoint
	{
		OFFSET 0.000000 0.000000 0.000000
		CHANNELS 3 Zrotation Yrotation Xrotation
		JOINT RightUpLeg
		{
			OFFSET -1.305520 -1.794630 0.839290
			CHANNELS 3 Zrotation Yrotation Xrotation
			JOINT RightLeg
			{
				OFFSET -2.542530 -6.985550 0.000000
				CHANNELS 3 Zrotation Yrotation Xrotation
				JOINT RightFoot
				{
					OFFSET -2.568260 -7.056230 0.000000
					CHANNELS 3 Zrotation Yrotation Xrotation
					JOINT RightToeBase
					{
						OFFSET -0.164730 -0.452590 2.363150
						CHANNELS 3 Zrotation Yrotation Xrotation
						End Site
						{
							OFFSET 0.000000 0.000000 0.000000
						}
					}
				}
			}
		}
	}
	JOINT LowerBack
	{
		OFFSET 0.000000 0.000000 0.000000
		CHANNELS 3 Zrotation Yrotation Xrotation
		JOINT Spine
		{
			OFFSET 0.028270 2.035590 -0.193380
			CHANNELS 3 Zrotation Yrotation Xrotation
			JOINT Spine1
			{
				OFFSET 0.056720 2.048850 -0.042750
				CHANNELS 3 Zrotation Yrotation Xrotation
				JOINT Neck
				{
					OFFSET 0.000000 0.000000 0.000000
					CHANNELS 3 Zrotation Yrotation Xrotation
					JOINT Neck1
					{
						OFFSET -0.054170 1.746240 0.172020
						CHANNELS 3 Zrotation Yrotation Xrotation
						JOINT Head
						{
							OFFSET 0.104070 1.761360 -0.123970
							CHANNELS 3 Zrotation Yrotation Xrotation
							End Site
							{
								OFFSET 0.000000 0.000000 0.000000
							}
						}
					}
				}
				JOINT LeftShoulder
				{
					OFFSET 0.000000 0.000000 0.000000
					CHANNELS 3 Zrotation Yrotation Xrotation
					JOINT LeftArm
					{
						OFFSET 3.362410 1.200890 -0.311210
						CHANNELS 3 Zrotation Yrotation Xrotation
						JOINT LeftForeArm
						{
							OFFSET 4.983000 -0.000000 -0.000000
							CHANNELS 3 Zrotation Yrotation Xrotation
							JOINT LeftHand
							{
								OFFSET 3.483560 -0.000000 -0.000000
								CHANNELS 3 Zrotation Yrotation Xrotation
								JOINT LeftFingerBase
								{
									OFFSET 0.000000 0.000000 0.000000
									CHANNELS 3 Zrotation Yrotation Xrotation
									JOINT LeftHandIndex1
									{
										OFFSET 0.715260 -0.000000 -0.000000
										CHANNELS 3 Zrotation Yrotation Xrotation
										End Site
										{
											OFFSET 0.000000 0.000000 0.000000
										}
									}
								}
								JOINT LThumb
								{
									OFFSET 0.000000 0.000000 0.000000
									CHANNELS 3 Zrotation Yrotation Xrotation
									End Site
									{
										OFFSET 0.000000 0.000000 0.000000
									}
								}
							}
						}
					}
				}
				JOINT RightShoulder
				{
					OFFSET 0.000000 0.000000 0.000000
					CHANNELS 3 Zrotation Yrotation Xrotation
					JOINT RightArm
					{
						OFFSET -3.136600 1.374050 -0.404650
						CHANNELS 3 Zrotation Yrotation Xrotation
						JOINT RightForeArm
						{
							OFFSET -5.241900 -0.000000 -0.000000
							CHANNELS 3 Zrotation Yrotation Xrotation
							JOINT RightHand
							{
								OFFSET -3.444170 -0.000000 -0.000000
								CHANNELS 3 Zrotation Yrotation Xrotation
								JOINT RightFingerBase
								{
									OFFSET 0.000000 0.000000 0.000000
									CHANNELS 3 Zrotation Yrotation Xrotation
									JOINT RightHandIndex1
									{
										OFFSET -0.622530 -0.000000 -0.000000
										CHANNELS 3 Zrotation Yrotation Xrotation
										End Site
										{
											OFFSET 0.000000 0.000000 0.000000
										}
									}
								}
								JOINT RThumb
								{
									OFFSET 0.000000 0.000000 0.000000
									CHANNELS 3 Zrotation Yrotation Xrotation
									End Site
									{
										OFFSET 0.000000 0.000000 0.000000
									}
								}
							}
						}
					}
				}
			}
		}
	}
}
MOTION
Frames: 5
Frame Time: 0.008333
1.621525 17.961197 -18.577536 -1.636269 0.131894 3.175413 -5.646606 -1.950209 0.527921 -13.948354 -5.302678 -12.899782 0.847165 9.526813 25.029022 -4.787087 19.596336 -1.761814 0.112800 -2.165100 -5.962100 3.550175 1.782173 -0.208068 9.586001 -3.773715 -18.054837 -8.348800 -16.882876 53.322999 4.862979 -21.043606 -3.940128 -0.030700 1.131100 -3.109500 -0.728566 0.038026 9.665877 3.928506 0.042771 1.652585 4.253530 0.094283 -2.904666 5.383105 2.539328 -15.240516 -3.971697 2.547638 12.504037 -4.773700 1.101100 8.853900 3.774669 -1.191319 0.216585 -39.764894 5.982852 -24.566896 20.115920 -28.848201 -4.260783 0.299720 0.754207 -0.352059 14.269492 5.497152 1.174000 -7.125000 0.000000 0.000000 -10.477400 34.696100 2.687900 -2.559061 1.105690 0.408621 31.416043 -11.787951 -30.323202 -21.218366 30.251268 -5.402166 0.035274 -0.601201 -7.563402 -21.587596 -3.631368 1.177800 7.125000 0.000000 0.000000 4.118100 -33.168400 1.196700 
1.624703 17.949679 -18.541888 -1.504483 0.133252 3.183853 -5.657751 -1.940687 0.542451 -14.123319 -5.535938 -12.646163 0.829546 9.512910 24.998514 -4.819606 19.673809 -2.281597 0.096800 -2.006300 -5.523200 3.549824 1.794546 -0.237033 9.489211 -3.599654 -18.581626 -8.286376 -16.839905 53.174098 4.843966 -20.907662 -4.709591 -0.034100 1.191700 -3.276300 -0.955975 0.041459 9.723553 3.825086 0.025188 1.625707 4.281044 0.085342 -2.959738 5.349162 2.488396 -15.249125 -3.794171 2.487084 12.631013 -4.712000 1.094300 8.891800 3.773442 -1.173192 0.214909 -39.692357 5.826706 -24.668836 20.082321 -28.811841 -4.246999 0.301134 0.753529 -0.331178 14.286731 5.489794 1.173700 -7.125000 0.000000 0.000000 -10.463400 34.689900 2.685800 -2.561765 1.114071 0.408464 31.462431 -11.765237 -30.183117 -21.261742 30.302484 -5.423162 0.036019 -0.601372 -7.607798 -21.586843 -3.638521 1.180500 7.125000 0.000000 0.000000 4.119000 -33.175900 1.196200 
1.626689 17.936869 -18.506538 -1.343396 0.138364 3.196793 -5.668462 -1.932875 0.558555 -14.328482 -5.728945 -12.405352 0.810026 9.496890 24.962801 -4.839135 19.712358 -2.811832 0.082800 -1.856200 -5.108400 3.548277 1.807268 -0.267845 9.367327 -3.417935 -19.119859 -8.233256 -16.801333 53.050241 4.824596 -20.788279 -5.448301 -0.037100 1.242600 -3.416600 -1.214921 0.043727 9.786802 3.707810 0.002061 1.595432 4.311839 0.074821 -3.021979 5.320066 2.443628 -15.234314 -3.608567 2.427531 12.713929 -4.647500 1.087900 8.909400 3.772633 -1.156874 0.213742 -39.588752 5.671340 -24.795586 20.046227 -28.771956 -4.231740 0.302848 0.752595 -0.300320 14.305438 5.469544 1.170400 -7.125000 0.000000 0.000000 -10.446300 34.670900 2.686200 -2.564808 1.120277 0.408149 31.535626 -11.727960 -30.059186 -21.303202 30.352032 -5.443730 0.036677 -0.601448 -7.648465 -21.595424 -3.645407 1.183700 7.125000 0.000000 0.000000 4.112300 -33.183300 1.193600 
1.627384 17.922868 -18.471685 -1.160053 0.157496 3.214917 -5.677663 -1.927635 0.575742 -14.554108 -5.874546 -12.188863 0.790696 9.482612 24.936615 -4.842910 19.700445 -3.382148 0.071000 -1.719300 -4.730600 3.545233 1.820429 -0.300159 9.229416 -3.240556 -19.672885 -8.190013 -16.767963 52.954310 4.803394 -20.678336 -6.159575 -0.040100 1.292900 -3.555000 -1.501814 0.038928 9.843547 3.585132 -0.034840 1.568662 4.353663 0.058427 -3.076515 5.296327 2.413505 -15.191379 -3.425711 2.380207 12.739069 -4.582600 1.085200 8.902400 3.771971 -1.144464 0.213157 -39.472388 5.535446 -24.929648 20.018553 -28.742141 -4.219894 0.304404 0.752113 -0.282072 14.325753 5.452096 1.167800 -7.125000 0.000000 0.000000 -10.428400 34.654500 2.685700 -2.567458 1.123515 0.407461 31.625096 -11.678367 -29.916600 -21.355354 30.415076 -5.470017 0.037638 -0.601546 -7.730652 -21.613942 -3.658366 1.189800 7.125000 0.000000 0.000000 4.098100 -33.197500 1.188000 
1.626689 17.907974 -18.437229 -0.951940 0.185204 3.237606 -5.685376 -1.924740 0.594857 -14.800260 -5.960963 -11.997400 0.770345 9.467870 24.911831 -4.830701 19.639502 -3.981294 0.062800 -1.616800 -4.447800 3.540855 1.834254 -0.334350 9.071707 -3.063689 -20.237380 -8.154140 -16.737695 52.875984 4.782461 -20.583291 -6.818040 -0.041700 1.318500 -3.625500 -1.818507 0.032324 9.900869 3.452755 -0.078415 1.546673 4.402503 0.039113 -3.126021 5.256609 2.380924 -15.147694 -3.224200 2.328551 12.735670 -4.508500 1.079900 8.883900 3.770868 -1.132688 0.212402 -39.337285 5.416901 -25.035971 20.008177 -28.733475 -4.215225 0.305676 0.752360 -0.308597 14.351870 5.436065 1.165900 -7.125000 0.000000 0.000000 -10.406000 34.639100 2.683700 -2.570207 1.126283 0.406909 31.743076 -11.613257 -29.823098 -21.404594 30.474989 -5.494591 0.038239 -0.601116 -7.762229 -21.604626 -3.633940 1.179800 7.125000 0.000000 0.000000 4.103800 -33.171500 1.192300 
